<mxfile host="app.diagrams.net" modified="2022-04-16T16:22:33.197Z" agent="5.0 (X11; Linux x86_64) AppleWebKit/537.36 (KHTML, like Gecko) Chrome/100.0.4896.127 Safari/537.36" etag="zp7hRQ8sKpNuczwWx7TH" version="17.4.5" type="github">
  <diagram id="iEOB_8xB4q2qLIP59DoI" name="Page-1">
    <mxGraphModel dx="-1569" dy="508" grid="1" gridSize="10" guides="1" tooltips="1" connect="1" arrows="1" fold="1" page="1" pageScale="1" pageWidth="850" pageHeight="1100" math="0" shadow="0">
      <root>
        <mxCell id="0" />
        <mxCell id="1" parent="0" />
        <mxCell id="svccPAOTe7ieTZYSBvPt-1" value="&lt;font style=&quot;font-size: 12px&quot; face=&quot;Helvetica&quot;&gt;Criella&lt;/font&gt;" style="rounded=0;whiteSpace=wrap;html=1;" vertex="1" parent="1">
          <mxGeometry x="2560" y="10" width="120" height="60" as="geometry" />
        </mxCell>
        <mxCell id="svccPAOTe7ieTZYSBvPt-2" value="TS" style="rounded=0;whiteSpace=wrap;html=1;" vertex="1" parent="1">
          <mxGeometry x="2705" y="340" width="120" height="60" as="geometry" />
        </mxCell>
        <mxCell id="svccPAOTe7ieTZYSBvPt-3" value="S" style="rounded=0;whiteSpace=wrap;html=1;" vertex="1" parent="1">
          <mxGeometry x="2845" y="340" width="120" height="60" as="geometry" />
        </mxCell>
        <mxCell id="svccPAOTe7ieTZYSBvPt-4" value="CUI" style="rounded=0;whiteSpace=wrap;html=1;" vertex="1" parent="1">
          <mxGeometry x="2985" y="340" width="120" height="60" as="geometry" />
        </mxCell>
        <mxCell id="svccPAOTe7ieTZYSBvPt-5" value="U" style="rounded=0;whiteSpace=wrap;html=1;" vertex="1" parent="1">
          <mxGeometry x="3125" y="340" width="120" height="60" as="geometry" />
        </mxCell>
        <mxCell id="svccPAOTe7ieTZYSBvPt-6" value="&lt;div&gt;&lt;br&gt;&lt;/div&gt;" style="rounded=0;whiteSpace=wrap;html=1;" vertex="1" parent="1">
          <mxGeometry x="2985" y="420" width="120" height="350" as="geometry" />
        </mxCell>
        <mxCell id="svccPAOTe7ieTZYSBvPt-7" value="&lt;div style=&quot;text-align: left&quot;&gt;&lt;br&gt;&lt;/div&gt;" style="rounded=0;whiteSpace=wrap;html=1;" vertex="1" parent="1">
          <mxGeometry x="2845" y="420" width="120" height="470" as="geometry" />
        </mxCell>
        <mxCell id="svccPAOTe7ieTZYSBvPt-8" value="&lt;ul style=&quot;text-align: -webkit-left&quot;&gt;&lt;li&gt;Cursed by being an offspring of Lord Strahd&lt;/li&gt;&lt;/ul&gt;" style="rounded=0;whiteSpace=wrap;html=1;" vertex="1" parent="1">
          <mxGeometry x="2705" y="420" width="120" height="350" as="geometry" />
        </mxCell>
        <mxCell id="svccPAOTe7ieTZYSBvPt-9" value="&lt;div align=&quot;left&quot;&gt;&lt;ul&gt;&lt;li&gt;Orphan&lt;/li&gt;&lt;li&gt;Hated by village for being a Tiefling&lt;/li&gt;&lt;li&gt;Forced into army by Lord Smith&amp;nbsp;&lt;/li&gt;&lt;li&gt;Ordered to destroy village with her powers but defend&amp;nbsp;it instead&lt;/li&gt;&lt;/ul&gt;&lt;/div&gt;" style="rounded=0;whiteSpace=wrap;html=1;" vertex="1" parent="1">
          <mxGeometry x="3125" y="420" width="120" height="480" as="geometry" />
        </mxCell>
        <mxCell id="svccPAOTe7ieTZYSBvPt-10" value="&lt;ul&gt;&lt;li&gt;Tiefling&lt;/li&gt;&lt;/ul&gt;" style="rounded=0;whiteSpace=wrap;html=1;" vertex="1" parent="1">
          <mxGeometry x="2705" y="10" width="305" height="300" as="geometry" />
        </mxCell>
        <mxCell id="svccPAOTe7ieTZYSBvPt-12" value="" style="shape=image;verticalLabelPosition=bottom;labelBackgroundColor=default;verticalAlign=top;aspect=fixed;imageAspect=0;image=https://i.pinimg.com/originals/8e/b8/0f/8eb80feb91a4826c79b0a5afc18e0211.jpg;" vertex="1" parent="1">
          <mxGeometry x="3040" y="30.810000000000002" width="265" height="258.38" as="geometry" />
        </mxCell>
      </root>
    </mxGraphModel>
  </diagram>
</mxfile>
